<svg xmlns="http://www.w3.org/2000/svg" viewBox="0 0 314.04 298.72"><defs><style>.cls-1{fill:#9c9c9c;}</style></defs><g id="Layer_2" data-name="Layer 2"><g id="Layer_1-2" data-name="Layer 1"><path class="cls-1" d="M69.5,298.72C65.36,288,61.56,277.26,57,266.79c-10-23.29-18.74-47.43-35.6-67C15.62,193.05,7.86,188,0,181.27c5.78-4.66,11.84-10.56,18.87-14.9A70.24,70.24,0,0,1,38,158.66c8-2.09,15.07,1.24,19.68,7.74,6.79,9.56,13.06,19.54,18.91,29.71,3.79,6.58,6.4,13.84,9.6,20.77.73,1.6,1.71,3.09,2.87,5.17,56.83-89.9,127.33-165.37,218-222l7,10c-12,10.74-23.91,20.83-35.18,31.57a681.05,681.05,0,0,0-78,89.15c-20.29,27.48-39.61,55.73-58.29,84.34-9.94,15.23-17.6,32-26.36,48-1.1,2-2.21,4.33-4,5.6C98.26,278.63,84.1,288.47,69.5,298.72Z"/></g></g></svg>